<?xml version="1.0" encoding="utf-8"?>
<!-- Svg Vector Icons : http://www.onlinewebfonts.com/icon -->
<!DOCTYPE svg PUBLIC "-//W3C//DTD SVG 1.1//EN" "http://www.w3.org/Graphics/SVG/1.1/DTD/svg11.dtd">
<svg version="1.1" xmlns="http://www.w3.org/2000/svg" xmlns:xlink="http://www.w3.org/1999/xlink" x="0px" y="0px" viewBox="0 0 1000 1000" enable-background="new 0 0 1000 1000" xml:space="preserve">
<metadata> Svg Vector Icons : http://www.onlinewebfonts.com/icon </metadata>
<g><g transform="translate(0.000000,512.000000) scale(0.100000,-0.100000)"><path d="M4833.1,5014.5C3676.8,4912.9,2645.2,4454.6,1830.3,3678c-813-774.7-1321.2-1783.3-1488-2956.8c-32.6-226.3-32.6-981.7,0-1208c105.5-740.2,360.5-1455.4,721-2019.1c393.1-615.5,931.9-1154.3,1545.5-1545.5c235.8-149.6,738.2-387.3,1018.2-481.3c542.6-180.3,960.6-247.4,1551.2-247.4c686.4,0,1252.1,111.2,1850.4,362.4c1100.6,460.2,1973.1,1282.8,2504.2,2358.5c149.6,303,174.5,368.2,128.5,347.1c-337.5-153.4-742.1-274.2-1098.7-327.9c-272.3-40.3-793.8-40.3-1064.2,0C6221.3-1852,5149.5-1067.7,4581.9,88.5c-651.9,1330.7-487.1,2912.6,425.7,4093.8c166.8,216.7,441,492.8,648.1,651.9c84.4,67.1,155.3,126.6,155.3,134.2C5811,4999.1,5051.7,5033.7,4833.1,5014.5z"/><path d="M6112,2615.7c-19.2-82.5-47.9-176.4-63.3-210.9c-38.3-76.7-143.8-130.4-341.3-172.6l-151.5-32.6l138.1-34.5c302.9-74.8,360.5-126.5,418-383.5c19.2-82.5,38.3-149.6,44.1-149.6c5.7,0,24.9,67.1,44.1,149.6c57.5,256.9,115,310.6,412.3,381.6l140,32.6l-166.8,44.1c-281.9,74.8-322.1,115-387.3,387.3c-17.3,74.8-36.4,136.1-42.2,136.1C6150.4,2763.4,6131.2,2696.3,6112,2615.7z"/><path d="M8530,1421.1c-5.8-15.3-24.9-101.6-44.1-191.7c-42.2-207.1-113.1-433.4-161.1-512c-65.2-103.5-337.5-212.8-688.4-276.1l-141.9-24.9l247.4-61.4c559.9-138,609.8-187.9,728.6-707.5c26.8-115,51.8-224.3,57.5-239.7s26.8,49.8,46,143.8C8622-226,8696.8,2.2,8750.5,82.7c24.9,34.5,72.9,82.4,107.4,105.4c74.8,49.8,341.3,140,567.6,187.9l151.5,34.5L9327.6,472c-435.3,107.4-558,186-640.4,406.5c-34.5,92-101.6,350.9-140,533.1C8541.5,1440.3,8537.6,1442.2,8530,1421.1z"/></g></g>
</svg>